<svg xmlns="http://www.w3.org/2000/svg" viewBox="-12 -12 142 46" width="852" height="276" shape-rendering="crispEdges"><rect x="-12" y="-12" width="142" height="46" fill="#000"/><path fill="#F4F1EA" d="M54 0h3v1h-3zM112 0h3v1h-3zM7 1h1v1h-1zM53 1h4v1h-4zM111 1h4v1h-4zM7 2h1v1h-1zM54 2h2v1h-2zM112 2h2v1h-2zM6 3h3v1h-3zM54 3h2v1h-2zM79 3h2v1h-2zM112 3h2v1h-2zM4 4h7v1h-7zM14 4h8v1h-8zM53 4h3v1h-3zM78 4h3v1h-3zM111 4h3v1h-3zM6 5h3v1h-3zM12 5h2v1h-2zM21 5h3v1h-3zM53 5h2v1h-2zM78 5h2v1h-2zM111 5h2v1h-2zM7 6h1v1h-1zM22 6h2v1h-2zM35 6h4v1h-4zM44 6h4v1h-4zM53 6h2v1h-2zM61 6h4v1h-4zM69 6h4v1h-4zM76 6h7v1h-7zM85 6h3v1h-3zM92 6h2v1h-2zM100 6h7v1h-7zM111 6h2v1h-2zM5 7h1v1h-1zM7 7h1v1h-1zM23 7h2v1h-2zM33 7h2v1h-2zM37 7h3v1h-3zM43 7h1v1h-1zM47 7h2v1h-2zM52 7h3v1h-3zM59 7h2v1h-2zM63 7h2v1h-2zM68 7h2v1h-2zM72 7h2v1h-2zM77 7h3v1h-3zM84 7h4v1h-4zM91 7h3v1h-3zM99 7h2v1h-2zM104 7h2v1h-2zM110 7h3v1h-3zM4 8h1v1h-1zM23 8h2v1h-2zM32 8h2v1h-2zM38 8h1v1h-1zM42 8h2v1h-2zM47 8h2v1h-2zM52 8h2v1h-2zM58 8h2v1h-2zM63 8h2v1h-2zM68 8h1v1h-1zM73 8h1v1h-1zM77 8h3v1h-3zM83 8h1v1h-1zM86 8h2v1h-2zM91 8h2v1h-2zM98 8h2v1h-2zM104 8h2v1h-2zM110 8h2v1h-2zM3 9h1v1h-1zM17 9h1v1h-1zM23 9h2v1h-2zM32 9h2v1h-2zM41 9h2v1h-2zM46 9h3v1h-3zM52 9h2v1h-2zM57 9h3v1h-3zM62 9h3v1h-3zM68 9h2v1h-2zM77 9h2v1h-2zM85 9h3v1h-3zM91 9h2v1h-2zM97 9h3v1h-3zM103 9h3v1h-3zM110 9h2v1h-2zM2 10h1v1h-1zM17 10h1v1h-1zM23 10h1v1h-1zM31 10h2v1h-2zM40 10h3v1h-3zM44 10h3v1h-3zM51 10h3v1h-3zM57 10h2v1h-2zM60 10h3v1h-3zM68 10h3v1h-3zM77 10h2v1h-2zM85 10h2v1h-2zM90 10h3v1h-3zM96 10h3v1h-3zM103 10h2v1h-2zM109 10h3v1h-3zM1 11h1v1h-1zM16 11h3v1h-3zM22 11h2v1h-2zM31 11h2v1h-2zM40 11h4v1h-4zM51 11h2v1h-2zM57 11h3v1h-3zM69 11h3v1h-3zM76 11h3v1h-3zM84 11h3v1h-3zM90 11h3v1h-3zM96 11h2v1h-2zM103 11h2v1h-2zM109 11h2v1h-2zM0 12h2v1h-2zM16 12h3v1h-3zM21 12h2v1h-2zM31 12h2v1h-2zM40 12h2v1h-2zM51 12h2v1h-2zM56 12h3v1h-3zM69 12h3v1h-3zM76 12h2v1h-2zM84 12h2v1h-2zM90 12h2v1h-2zM96 12h2v1h-2zM102 12h3v1h-3zM109 12h2v1h-2zM0 13h2v1h-2zM15 13h5v1h-5zM31 13h2v1h-2zM37 13h1v1h-1zM40 13h2v1h-2zM47 13h1v1h-1zM50 13h3v1h-3zM56 13h3v1h-3zM63 13h1v1h-1zM70 13h2v1h-2zM76 13h2v1h-2zM80 13h1v1h-1zM84 13h2v1h-2zM89 13h3v1h-3zM95 13h3v1h-3zM101 13h3v1h-3zM108 13h3v1h-3zM0 14h2v1h-2zM14 14h7v1h-7zM31 14h2v1h-2zM37 14h1v1h-1zM40 14h3v1h-3zM46 14h1v1h-1zM50 14h2v1h-2zM54 14h1v1h-1zM56 14h3v1h-3zM63 14h1v1h-1zM66 14h1v1h-1zM71 14h1v1h-1zM75 14h3v1h-3zM79 14h1v1h-1zM83 14h3v1h-3zM88 14h1v1h-1zM90 14h2v1h-2zM93 14h1v1h-1zM95 14h3v1h-3zM100 14h1v1h-1zM102 14h2v1h-2zM105 14h2v1h-2zM108 14h2v1h-2zM112 14h1v1h-1zM115 14h2v1h-2zM0 15h2v1h-2zM11 15h13v1h-13zM31 15h6v1h-6zM40 15h7v1h-7zM50 15h4v1h-4zM57 15h6v1h-6zM65 15h3v1h-3zM70 15h2v1h-2zM75 15h4v1h-4zM83 15h5v1h-5zM89 15h4v1h-4zM95 15h5v1h-5zM102 15h4v1h-4zM108 15h4v1h-4zM114 15h4v1h-4zM1 16h3v1h-3zM14 16h7v1h-7zM32 16h4v1h-4zM41 16h5v1h-5zM50 16h3v1h-3zM58 16h4v1h-4zM66 16h4v1h-4zM76 16h2v1h-2zM84 16h3v1h-3zM89 16h3v1h-3zM96 16h3v1h-3zM101 16h3v1h-3zM108 16h3v1h-3zM115 16h2v1h-2zM1 17h12v1h-12zM15 17h5v1h-5zM3 18h9v1h-9zM16 18h3v1h-3zM16 19h3v1h-3zM17 20h1v1h-1zM17 21h1v1h-1z"/></svg>
