<svg xmlns="http://www.w3.org/2000/svg" viewBox="0 0 113 25" width="904" height="200" shape-rendering="crispEdges" role="img"><title>celestual.</title><path id="k" fill="#F4F1EA" d="M12 0h1v1h-1zM12 1h1v1h-1zM12 2h1v1h-1zM12 3h1v1h-1zM12 4h1v1h-1zM52 4h2v1h-2zM107 4h2v1h-2zM12 5h1v1h-1zM14 5h8v1h-8zM52 5h2v1h-2zM78 5h2v1h-2zM107 5h2v1h-2zM9 6h2v1h-2zM12 6h1v1h-1zM21 6h3v1h-3zM52 6h2v1h-2zM78 6h2v1h-2zM107 6h2v1h-2zM7 7h2v1h-2zM12 7h1v1h-1zM22 7h2v1h-2zM32 7h7v1h-7zM42 7h7v1h-7zM52 7h2v1h-2zM57 7h7v1h-7zM68 7h7v1h-7zM77 7h6v1h-6zM85 7h2v1h-2zM92 7h2v1h-2zM97 7h7v1h-7zM107 7h2v1h-2zM5 8h2v1h-2zM11 8h3v1h-3zM23 8h2v1h-2zM31 8h2v1h-2zM38 8h1v1h-1zM41 8h2v1h-2zM48 8h2v1h-2zM52 8h2v1h-2zM56 8h2v1h-2zM63 8h2v1h-2zM67 8h2v1h-2zM78 8h2v1h-2zM85 8h2v1h-2zM92 8h2v1h-2zM103 8h2v1h-2zM107 8h2v1h-2zM4 9h1v1h-1zM11 9h3v1h-3zM23 9h2v1h-2zM31 9h2v1h-2zM41 9h2v1h-2zM48 9h2v1h-2zM52 9h2v1h-2zM56 9h2v1h-2zM63 9h2v1h-2zM67 9h2v1h-2zM78 9h2v1h-2zM85 9h2v1h-2zM92 9h2v1h-2zM103 9h2v1h-2zM107 9h2v1h-2zM3 10h1v1h-1zM10 10h5v1h-5zM23 10h2v1h-2zM31 10h2v1h-2zM41 10h2v1h-2zM48 10h2v1h-2zM52 10h2v1h-2zM56 10h2v1h-2zM63 10h2v1h-2zM67 10h2v1h-2zM78 10h2v1h-2zM85 10h2v1h-2zM92 10h2v1h-2zM103 10h2v1h-2zM107 10h2v1h-2zM2 11h1v1h-1zM9 11h7v1h-7zM23 11h1v1h-1zM31 11h2v1h-2zM41 11h2v1h-2zM48 11h2v1h-2zM52 11h2v1h-2zM56 11h2v1h-2zM63 11h2v1h-2zM67 11h2v1h-2zM78 11h2v1h-2zM85 11h2v1h-2zM92 11h2v1h-2zM103 11h2v1h-2zM107 11h2v1h-2zM1 12h1v1h-1zM6 12h13v1h-13zM22 12h2v1h-2zM31 12h2v1h-2zM41 12h9v1h-9zM52 12h2v1h-2zM56 12h9v1h-9zM68 12h6v1h-6zM78 12h2v1h-2zM85 12h2v1h-2zM92 12h2v1h-2zM97 12h8v1h-8zM107 12h2v1h-2zM0 13h2v1h-2zM9 13h7v1h-7zM21 13h2v1h-2zM31 13h2v1h-2zM41 13h2v1h-2zM52 13h2v1h-2zM56 13h2v1h-2zM73 13h2v1h-2zM78 13h2v1h-2zM85 13h2v1h-2zM92 13h2v1h-2zM96 13h2v1h-2zM103 13h2v1h-2zM107 13h2v1h-2zM0 14h2v1h-2zM10 14h5v1h-5zM20 14h2v1h-2zM31 14h2v1h-2zM41 14h2v1h-2zM52 14h2v1h-2zM56 14h2v1h-2zM73 14h2v1h-2zM78 14h2v1h-2zM85 14h2v1h-2zM92 14h2v1h-2zM96 14h2v1h-2zM103 14h2v1h-2zM107 14h2v1h-2zM0 15h2v1h-2zM11 15h3v1h-3zM18 15h3v1h-3zM31 15h2v1h-2zM41 15h2v1h-2zM52 15h2v1h-2zM56 15h2v1h-2zM73 15h2v1h-2zM78 15h2v1h-2zM85 15h2v1h-2zM92 15h2v1h-2zM96 15h2v1h-2zM103 15h2v1h-2zM107 15h2v1h-2zM0 16h2v1h-2zM11 16h3v1h-3zM16 16h4v1h-4zM31 16h2v1h-2zM38 16h1v1h-1zM41 16h2v1h-2zM52 16h2v1h-2zM56 16h2v1h-2zM73 16h2v1h-2zM78 16h2v1h-2zM85 16h2v1h-2zM92 16h2v1h-2zM96 16h2v1h-2zM103 16h2v1h-2zM107 16h2v1h-2zM111 16h2v1h-2zM1 17h3v1h-3zM14 17h4v1h-4zM32 17h7v1h-7zM42 17h8v1h-8zM52 17h2v1h-2zM57 17h8v1h-8zM67 17h7v1h-7zM79 17h4v1h-4zM86 17h8v1h-8zM97 17h8v1h-8zM107 17h2v1h-2zM111 17h2v1h-2zM1 18h15v1h-15zM3 19h9v1h-9zM12 20h1v1h-1zM12 21h1v1h-1zM12 22h1v1h-1zM12 23h1v1h-1zM12 24h1v1h-1z"/></svg>
